<svg xmlns="http://www.w3.org/2000/svg" width="1200" height="650" viewBox="0 0 1200 650"><rect width="100%" height="100%" fill="white"/><text x="20" y="28" font-size="18" font-weight="bold">Compression throughput (MiB/s; higher is better)</text><line x1="620" y1="25" x2="645" y2="25" stroke="#0072B2" stroke-width="3"/><text x="652" y="29" font-size="12">Brotli/WASM</text><line x1="800" y1="25" x2="825" y2="25" stroke="#D55E00" stroke-width="3"/><text x="832" y="29" font-size="12">XZ/WASM</text><line x1="980" y1="25" x2="1005" y2="25" stroke="#009E73" stroke-width="3"/><text x="1012" y="29" font-size="12">Zstd/WASM</text><line x1="620" y1="55" x2="645" y2="55" stroke="#333" stroke-width="2.5"/><circle cx="632.5" cy="55" r="5" fill="white" stroke="#333" stroke-width="2.5"/><text x="652" y="59" font-size="12">JSONL</text><line x1="800" y1="55" x2="825" y2="55" stroke="#333" stroke-width="2.5" stroke-dasharray="9 5"/><rect x="807.5" y="50" width="10" height="10" fill="white" stroke="#333" stroke-width="2.5"/><text x="832" y="59" font-size="12">Moderate</text><line x1="980" y1="55" x2="1005" y2="55" stroke="#333" stroke-width="2.5" stroke-dasharray="2 4"/><path d="M 992.5 49 L 998.5 60 L 986.5 60 Z" fill="white" stroke="#333" stroke-width="2.5"/><text x="1012" y="59" font-size="12">Incompressible</text><line x1="115" y1="555" x2="1155" y2="555" stroke="#e5e5e5"/><text x="105" y="559" text-anchor="end" font-size="12">0</text><line x1="115" y1="466" x2="1155" y2="466" stroke="#e5e5e5"/><text x="105" y="470" text-anchor="end" font-size="12">454</text><line x1="115" y1="377" x2="1155" y2="377" stroke="#e5e5e5"/><text x="105" y="381" text-anchor="end" font-size="12">908</text><line x1="115" y1="288" x2="1155" y2="288" stroke="#e5e5e5"/><text x="105" y="292" text-anchor="end" font-size="12">1.4k</text><line x1="115" y1="199.00000000000006" x2="1155" y2="199.00000000000006" stroke="#e5e5e5"/><text x="105" y="203.00000000000006" text-anchor="end" font-size="12">1.8k</text><line x1="115" y1="110" x2="1155" y2="110" stroke="#e5e5e5"/><text x="105" y="114" text-anchor="end" font-size="12">2.3k</text><text x="22" y="317.5" text-anchor="middle" font-size="12" transform="rotate(-90 22 317.5)">Throughput (MiB/s)</text><line x1="115" y1="95" x2="115" y2="555" stroke="#ddd"/><text x="115" y="579" text-anchor="middle" font-size="12">1</text><line x1="427" y1="95" x2="427" y2="555" stroke="#ddd"/><text x="427" y="579" text-anchor="middle" font-size="12">4</text><line x1="635" y1="95" x2="635" y2="555" stroke="#ddd"/><text x="635" y="579" text-anchor="middle" font-size="12">6</text><line x1="947" y1="95" x2="947" y2="555" stroke="#ddd"/><text x="947" y="579" text-anchor="middle" font-size="12">9</text><line x1="1155" y1="95" x2="1155" y2="555" stroke="#ddd"/><text x="1155" y="579" text-anchor="middle" font-size="12">11</text><line x1="115" y1="483.4549600907095" x2="1155" y2="483.4549600907095" stroke="#CC79A7" stroke-width="1.3" stroke-dasharray="10 4" opacity="0.65"/><line x1="115" y1="533.6436351257984" x2="1155" y2="533.6436351257984" stroke="#CC79A7" stroke-width="1.3" stroke-dasharray="9 5" opacity="0.65"/><line x1="115" y1="543.3891561805308" x2="1155" y2="543.3891561805308" stroke="#CC79A7" stroke-width="1.3" stroke-dasharray="2 4" opacity="0.65"/><line x1="115" y1="486.1251372114706" x2="1155" y2="486.1251372114706" stroke="#E69F00" stroke-width="1.3" stroke-dasharray="4 4" opacity="0.65"/><line x1="115" y1="533.5999317870312" x2="1155" y2="533.5999317870312" stroke="#E69F00" stroke-width="1.3" stroke-dasharray="9 5" opacity="0.65"/><line x1="115" y1="543.343860300869" x2="1155" y2="543.343860300869" stroke="#E69F00" stroke-width="1.3" stroke-dasharray="2 4" opacity="0.65"/><line x1="115" y1="483.2914285709549" x2="1155" y2="483.2914285709549" stroke="#56B4E9" stroke-width="1.3" stroke-dasharray="10 3 2 3" opacity="0.65"/><line x1="115" y1="533.7232960324145" x2="1155" y2="533.7232960324145" stroke="#56B4E9" stroke-width="1.3" stroke-dasharray="9 5" opacity="0.65"/><line x1="115" y1="543.5355380960334" x2="1155" y2="543.5355380960334" stroke="#56B4E9" stroke-width="1.3" stroke-dasharray="2 4" opacity="0.65"/><path d="M 115 110 L 427 492.99901185726947 L 635 495.4131054126723 L 947 513.8826998686606 L 1155 554.3631307030946" fill="none" stroke="#0072B2" stroke-width="2.5"/><circle cx="115" cy="110" r="5" fill="white" stroke="#0072B2" stroke-width="2.5"/><circle cx="427" cy="492.99901185726947" r="5" fill="white" stroke="#0072B2" stroke-width="2.5"/><circle cx="635" cy="495.4131054126723" r="5" fill="white" stroke="#0072B2" stroke-width="2.5"/><circle cx="947" cy="513.8826998686606" r="5" fill="white" stroke="#0072B2" stroke-width="2.5"/><circle cx="1155" cy="554.3631307030946" r="5" fill="white" stroke="#0072B2" stroke-width="2.5"/><path d="M 115 437.05827067580947 L 427 511.2447698741951 L 635 521.4823717946421 L 947 549.6934201623467 L 1155 554.7881195674917" fill="none" stroke="#0072B2" stroke-width="2.5" stroke-dasharray="9 5"/><rect x="110" y="432.05827067580947" width="10" height="10" fill="white" stroke="#0072B2" stroke-width="2.5"/><rect x="422" y="506.2447698741951" width="10" height="10" fill="white" stroke="#0072B2" stroke-width="2.5"/><rect x="630" y="516.4823717946421" width="10" height="10" fill="white" stroke="#0072B2" stroke-width="2.5"/><rect x="942" y="544.6934201623467" width="10" height="10" fill="white" stroke="#0072B2" stroke-width="2.5"/><rect x="1150" y="549.7881195674917" width="10" height="10" fill="white" stroke="#0072B2" stroke-width="2.5"/><path d="M 115 241.2749999979278 L 427 479.5853365380267 L 635 524.0606508873767 L 947 540.1244665717343 L 1155 554.6526093744786" fill="none" stroke="#0072B2" stroke-width="2.5" stroke-dasharray="2 4"/><path d="M 115 235.2749999979278 L 121 246.2749999979278 L 109 246.2749999979278 Z" fill="white" stroke="#0072B2" stroke-width="2.5"/><path d="M 427 473.5853365380267 L 433 484.5853365380267 L 421 484.5853365380267 Z" fill="white" stroke="#0072B2" stroke-width="2.5"/><path d="M 635 518.0606508873767 L 641 529.0606508873767 L 629 529.0606508873767 Z" fill="white" stroke="#0072B2" stroke-width="2.5"/><path d="M 947 534.1244665717343 L 953 545.1244665717343 L 941 545.1244665717343 Z" fill="white" stroke="#0072B2" stroke-width="2.5"/><path d="M 1155 548.6526093744786 L 1161 559.6526093744786 L 1149 559.6526093744786 Z" fill="white" stroke="#0072B2" stroke-width="2.5"/><path d="M 115 514.9840561221669 L 427 541.8321091289791 L 635 550.7792950356239 L 947 550.7812815168148" fill="none" stroke="#D55E00" stroke-width="2.5"/><circle cx="115" cy="514.9840561221669" r="5" fill="white" stroke="#D55E00" stroke-width="2.5"/><circle cx="427" cy="541.8321091289791" r="5" fill="white" stroke="#D55E00" stroke-width="2.5"/><circle cx="635" cy="550.7792950356239" r="5" fill="white" stroke="#D55E00" stroke-width="2.5"/><circle cx="947" cy="550.7812815168148" r="5" fill="white" stroke="#D55E00" stroke-width="2.5"/><path d="M 115 551.4795488974688 L 427 552.6046041077951 L 635 553.3841934486915 L 947 553.686133679529" fill="none" stroke="#D55E00" stroke-width="2.5" stroke-dasharray="9 5"/><rect x="110" y="546.4795488974688" width="10" height="10" fill="white" stroke="#D55E00" stroke-width="2.5"/><rect x="422" y="547.6046041077951" width="10" height="10" fill="white" stroke="#D55E00" stroke-width="2.5"/><rect x="630" y="548.3841934486915" width="10" height="10" fill="white" stroke="#D55E00" stroke-width="2.5"/><rect x="942" y="548.686133679529" width="10" height="10" fill="white" stroke="#D55E00" stroke-width="2.5"/><path d="M 115 553.4062333307828 L 427 554.2286462431106 L 635 554.4116902478091 L 947 554.3952813731781" fill="none" stroke="#D55E00" stroke-width="2.5" stroke-dasharray="2 4"/><path d="M 115 547.4062333307828 L 121 558.4062333307828 L 109 558.4062333307828 Z" fill="white" stroke="#D55E00" stroke-width="2.5"/><path d="M 427 548.2286462431106 L 433 559.2286462431106 L 421 559.2286462431106 Z" fill="white" stroke="#D55E00" stroke-width="2.5"/><path d="M 635 548.4116902478091 L 641 559.4116902478091 L 629 559.4116902478091 Z" fill="white" stroke="#D55E00" stroke-width="2.5"/><path d="M 947 548.3952813731781 L 953 559.3952813731781 L 941 559.3952813731781 Z" fill="white" stroke="#D55E00" stroke-width="2.5"/><path d="M 115 122.27586206610738 L 427 181.51785714142545 L 635 409.7569444433285 L 947 436.8361581912581 L 1155 467.7329624472961" fill="none" stroke="#009E73" stroke-width="2.5"/><circle cx="115" cy="122.27586206610738" r="5" fill="white" stroke="#009E73" stroke-width="2.5"/><circle cx="427" cy="181.51785714142545" r="5" fill="white" stroke="#009E73" stroke-width="2.5"/><circle cx="635" cy="409.7569444433285" r="5" fill="white" stroke="#009E73" stroke-width="2.5"/><circle cx="947" cy="436.8361581912581" r="5" fill="white" stroke="#009E73" stroke-width="2.5"/><circle cx="1155" cy="467.7329624472961" r="5" fill="white" stroke="#009E73" stroke-width="2.5"/><path d="M 115 208.34254143372846 L 427 374.17867435014807 L 635 364.8636363623805 L 947 407.7112676045805 L 1155 436.8361581912581" fill="none" stroke="#009E73" stroke-width="2.5" stroke-dasharray="9 5"/><rect x="110" y="203.34254143372846" width="10" height="10" fill="white" stroke="#009E73" stroke-width="2.5"/><rect x="422" y="369.17867435014807" width="10" height="10" fill="white" stroke="#009E73" stroke-width="2.5"/><rect x="630" y="359.8636363623805" width="10" height="10" fill="white" stroke="#009E73" stroke-width="2.5"/><rect x="942" y="402.7112676045805" width="10" height="10" fill="white" stroke="#009E73" stroke-width="2.5"/><rect x="1150" y="431.8361581912581" width="10" height="10" fill="white" stroke="#009E73" stroke-width="2.5"/><path d="M 115 286.85897435613606 L 427 286.85897435613606 L 635 334.0669014080782 L 947 343.0236486462481 L 1155 426.9489795909909" fill="none" stroke="#009E73" stroke-width="2.5" stroke-dasharray="2 4"/><path d="M 115 280.85897435613606 L 121 291.85897435613606 L 109 291.85897435613606 Z" fill="white" stroke="#009E73" stroke-width="2.5"/><path d="M 427 280.85897435613606 L 433 291.85897435613606 L 421 291.85897435613606 Z" fill="white" stroke="#009E73" stroke-width="2.5"/><path d="M 635 328.0669014080782 L 641 339.0669014080782 L 629 339.0669014080782 Z" fill="white" stroke="#009E73" stroke-width="2.5"/><path d="M 947 337.0236486462481 L 953 348.0236486462481 L 941 348.0236486462481 Z" fill="white" stroke="#009E73" stroke-width="2.5"/><path d="M 1155 420.9489795909909 L 1161 431.9489795909909 L 1149 431.9489795909909 Z" fill="white" stroke="#009E73" stroke-width="2.5"/><text x="635" y="603" text-anchor="middle" font-size="12">Quality / preset / level</text></svg>
