<svg xmlns="http://www.w3.org/2000/svg" width="1200" height="650" viewBox="0 0 1200 650"><rect width="100%" height="100%" fill="white"/><text x="20" y="28" font-size="18" font-weight="bold">Compression throughput (MiB/s; higher is better)</text><line x1="620" y1="25" x2="645" y2="25" stroke="#0072B2" stroke-width="3"/><text x="652" y="29" font-size="12">Brotli/WASM</text><line x1="800" y1="25" x2="825" y2="25" stroke="#D55E00" stroke-width="3"/><text x="832" y="29" font-size="12">XZ/WASM</text><line x1="980" y1="25" x2="1005" y2="25" stroke="#009E73" stroke-width="3"/><text x="1012" y="29" font-size="12">Zstd/WASM</text><line x1="620" y1="55" x2="645" y2="55" stroke="#333" stroke-width="2.5"/><circle cx="632.5" cy="55" r="5" fill="white" stroke="#333" stroke-width="2.5"/><text x="652" y="59" font-size="12">JSONL</text><line x1="800" y1="55" x2="825" y2="55" stroke="#333" stroke-width="2.5" stroke-dasharray="9 5"/><rect x="807.5" y="50" width="10" height="10" fill="white" stroke="#333" stroke-width="2.5"/><text x="832" y="59" font-size="12">Moderate</text><line x1="980" y1="55" x2="1005" y2="55" stroke="#333" stroke-width="2.5" stroke-dasharray="2 4"/><path d="M 992.5 49 L 998.5 60 L 986.5 60 Z" fill="white" stroke="#333" stroke-width="2.5"/><text x="1012" y="59" font-size="12">Incompressible</text><line x1="90" y1="95" x2="90" y2="555" stroke="#ddd"/><text x="90" y="579" text-anchor="middle" font-size="12">1</text><line x1="409.5" y1="95" x2="409.5" y2="555" stroke="#ddd"/><text x="409.5" y="579" text-anchor="middle" font-size="12">4</text><line x1="622.5" y1="95" x2="622.5" y2="555" stroke="#ddd"/><text x="622.5" y="579" text-anchor="middle" font-size="12">6</text><line x1="942" y1="95" x2="942" y2="555" stroke="#ddd"/><text x="942" y="579" text-anchor="middle" font-size="12">9</text><line x1="1155" y1="95" x2="1155" y2="555" stroke="#ddd"/><text x="1155" y="579" text-anchor="middle" font-size="12">11</text><line x1="90" y1="504.5666666666353" x2="1155" y2="504.5666666666353" stroke="#CC79A7" stroke-width="1.3" stroke-dasharray="10 4" opacity="0.65"/><line x1="90" y1="538.1922843869833" x2="1155" y2="538.1922843869833" stroke="#CC79A7" stroke-width="1.3" stroke-dasharray="9 5" opacity="0.65"/><line x1="90" y1="545.7641509433905" x2="1155" y2="545.7641509433905" stroke="#CC79A7" stroke-width="1.3" stroke-dasharray="2 4" opacity="0.65"/><line x1="90" y1="504.19719169716547" x2="1155" y2="504.19719169716547" stroke="#E69F00" stroke-width="1.3" stroke-dasharray="4 4" opacity="0.65"/><line x1="90" y1="538.1582675571634" x2="1155" y2="538.1582675571634" stroke="#E69F00" stroke-width="1.3" stroke-dasharray="9 5" opacity="0.65"/><line x1="90" y1="545.7291666666606" x2="1155" y2="545.7291666666606" stroke="#E69F00" stroke-width="1.3" stroke-dasharray="2 4" opacity="0.65"/><line x1="90" y1="503.377791563247" x2="1155" y2="503.377791563247" stroke="#56B4E9" stroke-width="1.3" stroke-dasharray="10 3 2 3" opacity="0.65"/><line x1="90" y1="538.1412074554182" x2="1155" y2="538.1412074554182" stroke="#56B4E9" stroke-width="1.3" stroke-dasharray="9 5" opacity="0.65"/><line x1="90" y1="545.7188266785574" x2="1155" y2="545.7188266785574" stroke="#56B4E9" stroke-width="1.3" stroke-dasharray="2 4" opacity="0.65"/><path d="M 90 151.04368932025102 L 409.5 477.87766450411834 L 622.5 516.0234192037228 L 942 531.6774103138861 L 1155 554.6007302632207" fill="none" stroke="#0072B2" stroke-width="2.5"/><circle cx="90" cy="151.04368932025102" r="5" fill="white" stroke="#0072B2" stroke-width="2.5"/><circle cx="409.5" cy="477.87766450411834" r="5" fill="white" stroke="#0072B2" stroke-width="2.5"/><circle cx="622.5" cy="516.0234192037228" r="5" fill="white" stroke="#0072B2" stroke-width="2.5"/><circle cx="942" cy="531.6774103138861" r="5" fill="white" stroke="#0072B2" stroke-width="2.5"/><circle cx="1155" cy="554.6007302632207" r="5" fill="white" stroke="#0072B2" stroke-width="2.5"/><path d="M 90 457.21504112806383 L 409.5 522.2123719463926 L 622.5 533.2671715852548 L 942 551.8845001871939 L 1155 554.850207996947" fill="none" stroke="#0072B2" stroke-width="2.5" stroke-dasharray="9 5"/><rect x="85" y="452.21504112806383" width="10" height="10" fill="white" stroke="#0072B2" stroke-width="2.5"/><rect x="404.5" y="517.2123719463926" width="10" height="10" fill="white" stroke="#0072B2" stroke-width="2.5"/><rect x="617.5" y="528.2671715852548" width="10" height="10" fill="white" stroke="#0072B2" stroke-width="2.5"/><rect x="937" y="546.8845001871939" width="10" height="10" fill="white" stroke="#0072B2" stroke-width="2.5"/><rect x="1150" y="549.850207996947" width="10" height="10" fill="white" stroke="#0072B2" stroke-width="2.5"/><path d="M 90 314.4942196528677 L 409.5 506.67537746801725 L 622.5 537.9756546644754 L 942 544.7669699950757 L 1155 554.7392997449857" fill="none" stroke="#0072B2" stroke-width="2.5" stroke-dasharray="2 4"/><path d="M 90 308.4942196528677 L 96 319.4942196528677 L 84 319.4942196528677 Z" fill="white" stroke="#0072B2" stroke-width="2.5"/><path d="M 409.5 500.67537746801725 L 415.5 511.67537746801725 L 403.5 511.67537746801725 Z" fill="white" stroke="#0072B2" stroke-width="2.5"/><path d="M 622.5 531.9756546644754 L 628.5 542.9756546644754 L 616.5 542.9756546644754 Z" fill="white" stroke="#0072B2" stroke-width="2.5"/><path d="M 942 538.7669699950757 L 948 549.7669699950757 L 936 549.7669699950757 Z" fill="white" stroke="#0072B2" stroke-width="2.5"/><path d="M 1155 548.7392997449857 L 1161 559.7392997449857 L 1149 559.7392997449857 Z" fill="white" stroke="#0072B2" stroke-width="2.5"/><path d="M 90 530.5249999999847 L 409.5 547.1768355739353 L 622.5 552.4363832409103 L 942 552.4175278527744" fill="none" stroke="#D55E00" stroke-width="2.5"/><circle cx="90" cy="530.5249999999847" r="5" fill="white" stroke="#D55E00" stroke-width="2.5"/><circle cx="409.5" cy="547.1768355739353" r="5" fill="white" stroke="#D55E00" stroke-width="2.5"/><circle cx="622.5" cy="552.4363832409103" r="5" fill="white" stroke="#D55E00" stroke-width="2.5"/><circle cx="942" cy="552.4175278527744" r="5" fill="white" stroke="#D55E00" stroke-width="2.5"/><path d="M 90 552.2159585145516 L 409.5 553.4437067514484 L 622.5 553.7011862025901 L 942 553.6838067822338" fill="none" stroke="#D55E00" stroke-width="2.5" stroke-dasharray="9 5"/><rect x="85" y="547.2159585145516" width="10" height="10" fill="white" stroke="#D55E00" stroke-width="2.5"/><rect x="404.5" y="548.4437067514484" width="10" height="10" fill="white" stroke="#D55E00" stroke-width="2.5"/><rect x="617.5" y="548.7011862025901" width="10" height="10" fill="white" stroke="#D55E00" stroke-width="2.5"/><rect x="937" y="548.6838067822338" width="10" height="10" fill="white" stroke="#D55E00" stroke-width="2.5"/><path d="M 90 553.7963579032623 L 409.5 554.3403853928038 L 622.5 554.4040790312297 L 942 554.3574329750428" fill="none" stroke="#D55E00" stroke-width="2.5" stroke-dasharray="2 4"/><path d="M 90 547.7963579032623 L 96 558.7963579032623 L 84 558.7963579032623 Z" fill="white" stroke="#D55E00" stroke-width="2.5"/><path d="M 409.5 548.3403853928038 L 415.5 559.3403853928038 L 403.5 559.3403853928038 Z" fill="white" stroke="#D55E00" stroke-width="2.5"/><path d="M 622.5 548.4040790312297 L 628.5 559.4040790312297 L 616.5 559.4040790312297 Z" fill="white" stroke="#D55E00" stroke-width="2.5"/><path d="M 942 548.3574329750428 L 948 559.3574329750428 L 936 559.3574329750428 Z" fill="white" stroke="#D55E00" stroke-width="2.5"/><path d="M 90 110 L 409.5 261.9894366197761 L 622.5 454.9819711537979 L 942 471.5346038113921 L 1155 490.8404009251491" fill="none" stroke="#009E73" stroke-width="2.5"/><circle cx="90" cy="110" r="5" fill="white" stroke="#009E73" stroke-width="2.5"/><circle cx="409.5" cy="261.9894366197761" r="5" fill="white" stroke="#009E73" stroke-width="2.5"/><circle cx="622.5" cy="454.9819711537979" r="5" fill="white" stroke="#009E73" stroke-width="2.5"/><circle cx="942" cy="471.5346038113921" r="5" fill="white" stroke="#009E73" stroke-width="2.5"/><circle cx="1155" cy="490.8404009251491" r="5" fill="white" stroke="#009E73" stroke-width="2.5"/><path d="M 90 263.01754385946737 L 409.5 452.26543209870147 L 622.5 420.9983896941594 L 942 456.16983372923664 L 1155 476.7168391345105" fill="none" stroke="#009E73" stroke-width="2.5" stroke-dasharray="9 5"/><rect x="85" y="258.01754385946737" width="10" height="10" fill="white" stroke="#009E73" stroke-width="2.5"/><rect x="404.5" y="447.26543209870147" width="10" height="10" fill="white" stroke="#009E73" stroke-width="2.5"/><rect x="617.5" y="415.9983896941594" width="10" height="10" fill="white" stroke="#009E73" stroke-width="2.5"/><rect x="937" y="451.16983372923664" width="10" height="10" fill="white" stroke="#009E73" stroke-width="2.5"/><rect x="1150" y="471.7168391345105" width="10" height="10" fill="white" stroke="#009E73" stroke-width="2.5"/><path d="M 90 337.72845952949467 L 409.5 374.4902386115101 L 622.5 402.31192660540955 L 942 422.7027027026693 L 1155 453.7652068125317" fill="none" stroke="#009E73" stroke-width="2.5" stroke-dasharray="2 4"/><path d="M 90 331.72845952949467 L 96 342.72845952949467 L 84 342.72845952949467 Z" fill="white" stroke="#009E73" stroke-width="2.5"/><path d="M 409.5 368.4902386115101 L 415.5 379.4902386115101 L 403.5 379.4902386115101 Z" fill="white" stroke="#009E73" stroke-width="2.5"/><path d="M 622.5 396.31192660540955 L 628.5 407.31192660540955 L 616.5 407.31192660540955 Z" fill="white" stroke="#009E73" stroke-width="2.5"/><path d="M 942 416.7027027026693 L 948 427.7027027026693 L 936 427.7027027026693 Z" fill="white" stroke="#009E73" stroke-width="2.5"/><path d="M 1155 447.7652068125317 L 1161 458.7652068125317 L 1149 458.7652068125317 Z" fill="white" stroke="#009E73" stroke-width="2.5"/><text x="622.5" y="603" text-anchor="middle" font-size="12">Quality / preset / level</text></svg>
