<svg xmlns="http://www.w3.org/2000/svg" width="1000" height="960" viewBox="0 0 1000 960"><rect width="100%" height="100%" fill="white"/><text x="20" y="28" font-size="18" font-weight="bold">Compressed size (% of input; lower is better)</text><circle cx="720" cy="25" r="5" fill="currentColor"/><text x="732" y="29" font-size="12">Brotli/WASM</text><rect x="825" y="20" width="10" height="10" fill="currentColor"/><text x="840" y="29" font-size="12">XZ/WASM</text><text x="20" y="47" font-size="15" font-weight="bold">jsonl</text><line x1="85" y1="65" x2="85" y2="270" stroke="#ddd"/><text x="85" y="292" text-anchor="middle" font-size="12">1</text><line x1="347.5" y1="65" x2="347.5" y2="270" stroke="#ddd"/><text x="347.5" y="292" text-anchor="middle" font-size="12">4</text><line x1="522.5" y1="65" x2="522.5" y2="270" stroke="#ddd"/><text x="522.5" y="292" text-anchor="middle" font-size="12">6</text><line x1="785" y1="65" x2="785" y2="270" stroke="#ddd"/><text x="785" y="292" text-anchor="middle" font-size="12">9</text><line x1="960" y1="65" x2="960" y2="270" stroke="#ddd"/><text x="960" y="292" text-anchor="middle" font-size="12">11</text><line x1="85" y1="90" x2="960" y2="90" stroke="#777" stroke-dasharray="4 4"/><text x="956" y="86" text-anchor="end" font-size="10">gzip 1.0880%</text><line x1="85" y1="90.00591646283175" x2="960" y2="90.00591646283175" stroke="#777" stroke-dasharray="6 4"/><text x="956" y="86.00591646283175" text-anchor="end" font-size="10">deflate 1.0880%</text><line x1="85" y1="90.0088746942476" x2="960" y2="90.0088746942476" stroke="#777" stroke-dasharray="8 4"/><text x="956" y="86.0088746942476" text-anchor="end" font-size="10">deflate-raw 1.0880%</text><path d="M 85 184.85914161985082 L 347.5 209.6496139234092 L 522.5 227.41823092283124 L 785 227.72243572009654 L 960 226.55492038796658" fill="none" stroke="currentColor" stroke-width="2"/><circle cx="85" cy="184.85914161985082" r="5" fill="currentColor"/><text x="92" y="177.85914161985082" font-size="10">0.5146%</text><circle cx="347.5" cy="209.6496139234092" r="5" fill="currentColor"/><text x="354.5" y="202.6496139234092" font-size="10">0.3648%</text><circle cx="522.5" cy="227.41823092283124" r="5" fill="currentColor"/><text x="529.5" y="220.41823092283124" font-size="10">0.2574%</text><circle cx="785" cy="227.72243572009654" r="5" fill="currentColor"/><text x="792" y="220.72243572009654" font-size="10">0.2556%</text><circle cx="960" cy="226.55492038796658" r="5" fill="currentColor"/><text x="967" y="219.55492038796658" font-size="10">0.2626%</text><path d="M 85 196.63191657787405 L 347.5 203.81450245560598 L 522.5 224.57537053218036 L 785 228.36190674449372" fill="none" stroke="currentColor" stroke-width="2"/><rect x="80" y="191.63191657787405" width="10" height="10" fill="currentColor"/><text x="92" y="189.63191657787405" font-size="10">0.4435%</text><rect x="342.5" y="198.81450245560598" width="10" height="10" fill="currentColor"/><text x="354.5" y="196.81450245560598" font-size="10">0.4001%</text><rect x="517.5" y="219.57537053218036" width="10" height="10" fill="currentColor"/><text x="529.5" y="217.57537053218036" font-size="10">0.2746%</text><rect x="780" y="223.36190674449372" width="10" height="10" fill="currentColor"/><text x="792" y="221.36190674449372" font-size="10">0.2517%</text><text x="522.5" y="313" text-anchor="middle" font-size="12">Quality / preset level</text><text x="20" y="347" font-size="15" font-weight="bold">moderate</text><line x1="85" y1="365" x2="85" y2="570" stroke="#ddd"/><text x="85" y="592" text-anchor="middle" font-size="12">1</text><line x1="347.5" y1="365" x2="347.5" y2="570" stroke="#ddd"/><text x="347.5" y="592" text-anchor="middle" font-size="12">4</text><line x1="522.5" y1="365" x2="522.5" y2="570" stroke="#ddd"/><text x="522.5" y="592" text-anchor="middle" font-size="12">6</text><line x1="785" y1="365" x2="785" y2="570" stroke="#ddd"/><text x="785" y="592" text-anchor="middle" font-size="12">9</text><line x1="960" y1="365" x2="960" y2="570" stroke="#ddd"/><text x="960" y="592" text-anchor="middle" font-size="12">11</text><line x1="85" y1="391.0790357368588" x2="960" y2="391.0790357368588" stroke="#777" stroke-dasharray="4 4"/><text x="956" y="387.0790357368588" text-anchor="end" font-size="10">gzip 50.4502%</text><line x1="85" y1="391.0791625690854" x2="960" y2="391.0791625690854" stroke="#777" stroke-dasharray="6 4"/><text x="956" y="387.0791625690854" text-anchor="end" font-size="10">deflate 50.4502%</text><line x1="85" y1="391.0792259851987" x2="960" y2="391.0792259851987" stroke="#777" stroke-dasharray="8 4"/><text x="956" y="387.0792259851987" text-anchor="end" font-size="10">deflate-raw 50.4502%</text><path d="M 85 392.56543544674184 L 347.5 392.65598308715744 L 522.5 392.6547570423007 L 785 392.64333157255754 L 960 392.6507829658683" fill="none" stroke="currentColor" stroke-width="2"/><circle cx="85" cy="392.56543544674184" r="5" fill="currentColor"/><text x="92" y="385.56543544674184" font-size="10">50.0311%</text><circle cx="347.5" cy="392.65598308715744" r="5" fill="currentColor"/><text x="354.5" y="385.65598308715744" font-size="10">50.0056%</text><circle cx="522.5" cy="392.6547570423007" r="5" fill="currentColor"/><text x="529.5" y="385.6547570423007" font-size="10">50.0059%</text><circle cx="785" cy="392.64333157255754" r="5" fill="currentColor"/><text x="792" y="385.64333157255754" font-size="10">50.0091%</text><circle cx="960" cy="392.6507829658683" r="5" fill="currentColor"/><text x="967" y="385.6507829658683" font-size="10">50.0070%</text><path d="M 85 390 L 347.5 390.22330927357314 L 522.5 390.2304964330785 L 785 390.228298007818" fill="none" stroke="currentColor" stroke-width="2"/><rect x="80" y="385" width="10" height="10" fill="currentColor"/><text x="92" y="383" font-size="10">50.7545%</text><rect x="342.5" y="385.22330927357314" width="10" height="10" fill="currentColor"/><text x="354.5" y="383.22330927357314" font-size="10">50.6915%</text><rect x="517.5" y="385.2304964330785" width="10" height="10" fill="currentColor"/><text x="529.5" y="383.2304964330785" font-size="10">50.6895%</text><rect x="780" y="385.228298007818" width="10" height="10" fill="currentColor"/><text x="792" y="383.228298007818" font-size="10">50.6901%</text><text x="522.5" y="613" text-anchor="middle" font-size="12">Quality / preset level</text><text x="20" y="647" font-size="15" font-weight="bold">incompressible</text><line x1="85" y1="665" x2="85" y2="870" stroke="#ddd"/><text x="85" y="892" text-anchor="middle" font-size="12">1</text><line x1="347.5" y1="665" x2="347.5" y2="870" stroke="#ddd"/><text x="347.5" y="892" text-anchor="middle" font-size="12">4</text><line x1="522.5" y1="665" x2="522.5" y2="870" stroke="#ddd"/><text x="522.5" y="892" text-anchor="middle" font-size="12">6</text><line x1="785" y1="665" x2="785" y2="870" stroke="#ddd"/><text x="785" y="892" text-anchor="middle" font-size="12">9</text><line x1="960" y1="665" x2="960" y2="870" stroke="#ddd"/><text x="960" y="892" text-anchor="middle" font-size="12">11</text><line x1="85" y1="690" x2="960" y2="690" stroke="#777" stroke-dasharray="4 4"/><text x="956" y="686" text-anchor="end" font-size="10">gzip 100.0306%</text><line x1="85" y1="690.0000643533332" x2="960" y2="690.0000643533332" stroke="#777" stroke-dasharray="6 4"/><text x="956" y="686.0000643533332" text-anchor="end" font-size="10">deflate 100.0306%</text><line x1="85" y1="690.0000965299997" x2="960" y2="690.0000965299997" stroke="#777" stroke-dasharray="8 4"/><text x="956" y="686.0000965299997" text-anchor="end" font-size="10">deflate-raw 100.0305%</text><path d="M 85 690.0548612165253 L 347.5 690.0549470209695 L 522.5 690.0546091659704 L 785 690.0545662637483 L 960 690.054480459304" fill="none" stroke="currentColor" stroke-width="2"/><circle cx="85" cy="690.0548612165253" r="5" fill="currentColor"/><text x="92" y="683.0548612165253" font-size="10">100.0001%</text><circle cx="347.5" cy="690.0549470209695" r="5" fill="currentColor"/><text x="354.5" y="683.0549470209695" font-size="10">100.0001%</text><circle cx="522.5" cy="690.0546091659704" r="5" fill="currentColor"/><text x="529.5" y="683.0546091659704" font-size="10">100.0002%</text><circle cx="785" cy="690.0545662637483" r="5" fill="currentColor"/><text x="792" y="683.0545662637483" font-size="10">100.0003%</text><circle cx="960" cy="690.054480459304" r="5" fill="currentColor"/><text x="967" y="683.054480459304" font-size="10">100.0003%</text><path d="M 85 690.0463290371029 L 347.5 690.0463290371029 L 522.5 690.0463290371029 L 785 690.0463290371029" fill="none" stroke="currentColor" stroke-width="2"/><rect x="80" y="685.0463290371029" width="10" height="10" fill="currentColor"/><text x="92" y="683.0463290371029" font-size="10">100.0048%</text><rect x="342.5" y="685.0463290371029" width="10" height="10" fill="currentColor"/><text x="354.5" y="683.0463290371029" font-size="10">100.0048%</text><rect x="517.5" y="685.0463290371029" width="10" height="10" fill="currentColor"/><text x="529.5" y="683.0463290371029" font-size="10">100.0048%</text><rect x="780" y="685.0463290371029" width="10" height="10" fill="currentColor"/><text x="792" y="683.0463290371029" font-size="10">100.0048%</text><text x="522.5" y="913" text-anchor="middle" font-size="12">Quality / preset level</text></svg>
